<svg xmlns="http://www.w3.org/2000/svg" width="1000" height="1000" viewBox="0 0 1000 1000">
<g>
<path d="M 0.00 0.00 L 1000.00 0.00 L 1000.00 1000.00 L 0.00 1000.00 ZM 384.64 591.31 C385.33,592.00 387.99,590.05 404.00,577.09 C428.80,557.02 449.48,536.88 457.97,524.54 C463.01,517.22 469.60,502.32 471.90,493.06 C474.27,483.54 474.75,466.52 472.93,456.43 C467.64,427.04 448.88,402.09 422.65,389.58 C411.89,384.45 403.59,382.29 389.66,380.98 C365.27,378.69 337.50,389.99 318.87,409.80 C304.22,425.37 296.92,441.85 294.99,463.72 C290.62,513.16 325.41,556.50 374.75,563.05 L 384.00 564.28 L 384.00 577.48 C384.00,584.73 384.29,590.95 384.64,591.31 ZM 122.67 528.33 C123.03,528.70 132.93,529.00 144.67,529.00 L 166.00 529.00 L 166.13 488.25 C166.20,465.84 166.23,446.26 166.20,444.75 C166.16,443.24 166.45,442.01 166.82,442.03 C167.19,442.04 169.07,444.40 170.98,447.28 C172.89,450.15 177.64,457.00 181.52,462.50 C185.41,468.00 191.76,477.00 195.64,482.50 C220.35,517.53 227.56,527.58 228.47,528.25 C229.04,528.66 238.05,528.88 248.50,528.75 L 267.50 528.50 L 268.01 354.00 L 222.02 354.00 L 221.50 444.91 L 208.00 425.48 C200.57,414.79 186.41,394.34 176.52,380.03 L 158.53 354.00 L 122.00 354.00 L 122.00 440.83 C122.00,488.59 122.30,527.97 122.67,528.33 ZM 649.39 525.17 C655.01,526.60 659.22,526.89 669.50,526.57 C683.97,526.12 689.72,524.68 702.17,518.42 C714.27,512.33 729.06,495.64 732.46,484.25 L 733.13 482.00 L 692.79 482.00 L 689.64 484.66 C683.70,489.68 677.21,491.98 668.97,491.99 C662.45,492.00 660.51,491.55 654.47,488.62 C650.64,486.77 646.33,483.96 644.90,482.37 C641.81,478.95 639.00,474.86 639.00,473.78 C639.00,473.35 660.61,473.00 687.03,473.00 C731.84,473.00 735.11,472.88 735.78,471.25 C736.18,470.29 736.50,463.88 736.49,457.00 C736.48,443.65 734.93,436.91 729.24,425.55 C715.65,398.42 684.28,384.18 651.84,390.41 C620.70,396.39 599.32,421.33 597.31,454.02 C595.22,487.95 616.30,516.74 649.39,525.17 ZM 793.39 527.07 C801.08,528.30 818.78,527.23 827.46,525.01 C841.60,521.39 851.31,514.10 857.31,502.58 C860.39,496.66 860.48,496.15 860.48,483.50 C860.48,469.19 859.27,464.91 852.96,456.95 C845.57,447.61 828.31,440.40 810.11,439.04 C797.45,438.10 792.36,436.29 791.38,432.39 C789.83,426.22 795.46,422.17 805.73,422.06 C813.37,421.97 818.66,424.41 821.06,429.13 L 823.04 433.00 L 858.00 433.00 L 858.00 430.55 C858.00,421.06 852.35,408.47 845.00,401.60 C835.25,392.48 823.63,388.64 806.00,388.73 C780.67,388.86 764.11,396.90 756.20,412.92 C752.58,420.24 752.50,420.65 752.50,431.95 C752.50,442.38 752.76,444.05 755.17,449.20 C758.76,456.85 765.14,462.98 774.09,467.36 C783.61,472.01 790.79,473.77 804.90,474.91 C817.89,475.95 821.28,477.53 821.81,482.80 C822.23,487.04 820.49,489.90 816.45,491.58 C807.29,495.41 793.65,491.42 790.35,483.93 L 788.62 480.00 L 751.00 480.00 L 751.00 482.82 C751.00,489.04 753.37,497.86 756.78,504.38 C763.01,516.27 775.93,524.28 793.39,527.07 ZM 554.50 526.42 C557.07,527.04 580.64,526.24 584.25,525.40 C586.82,524.81 587.00,524.42 587.00,519.54 C587.00,516.66 586.71,509.57 586.35,503.77 L 585.71 493.22 L 576.10 492.80 C565.10,492.33 560.98,490.69 558.27,485.73 C556.72,482.90 556.46,478.98 556.18,454.25 L 555.86 426.00 L 585.00 426.00 L 585.00 391.00 L 556.00 391.00 L 556.00 360.72 L 550.75 361.32 C547.86,361.65 539.09,362.23 531.25,362.61 L 517.00 363.30 L 517.00 391.00 L 498.95 391.00 L 499.50 425.50 L 517.00 426.08 L 517.01 457.29 C517.03,490.89 517.64,496.42 522.39,505.79 C523.72,508.40 527.09,512.68 529.89,515.30 C536.14,521.15 540.08,522.93 554.50,526.42 ZM 594.67 606.33 C595.48,607.15 596.81,607.16 599.75,606.37 C601.90,605.79 602.00,605.31 602.00,595.18 C602.00,588.07 602.33,584.93 603.01,585.61 C603.56,586.16 606.63,590.87 609.82,596.06 C615.54,605.36 615.69,605.50 619.81,605.81 L 624.00 606.11 L 624.00 569.00 L 616.00 569.00 L 616.00 580.00 C616.00,586.05 615.66,590.99 615.25,590.97 C614.84,590.95 611.58,586.01 608.00,579.98 C601.58,569.16 601.46,569.03 597.75,569.01 L 594.00 569.00 L 594.00 587.33 C594.00,597.42 594.30,605.97 594.67,606.33 ZM 671.00 569.00 L 671.00 606.00 L 679.13 606.00 L 678.81 595.50 C678.64,589.72 678.81,585.00 679.20,585.00 C679.58,585.00 682.71,589.72 686.14,595.50 L 692.38 606.00 L 701.00 606.00 L 700.99 591.25 C700.98,583.14 700.70,574.79 700.35,572.70 C699.74,569.04 699.59,568.91 696.11,569.20 L 692.50 569.50 L 692.60 580.25 C692.66,586.16 692.39,591.00 692.01,591.00 C691.62,591.00 688.29,586.05 684.59,580.00 C678.14,569.44 677.73,569.00 674.43,569.00 ZM 694.00 441.96 C694.00,442.65 685.02,443.00 667.00,443.00 C648.82,443.00 640.00,442.66 640.00,441.95 C640.00,439.72 643.04,435.19 646.88,431.73 C653.82,425.45 656.43,424.52 667.00,424.51 C677.07,424.50 682.25,426.20 687.85,431.34 C690.22,433.52 694.00,440.05 694.00,441.96 ZM 858.64 606.31 C859.00,606.66 860.68,606.80 862.39,606.61 L 865.50 606.28 L 865.78 596.14 C865.94,590.56 866.39,586.00 866.78,586.01 C867.18,586.01 870.18,590.40 873.45,595.76 C876.72,601.11 879.87,605.83 880.45,606.23 C881.03,606.64 882.74,606.98 884.25,606.98 L 887.00 607.00 L 887.00 568.88 L 879.50 569.50 L 879.86 580.25 C880.07,586.64 879.83,591.00 879.27,591.00 C878.74,591.00 875.47,586.23 871.99,580.40 C868.51,574.58 865.07,569.58 864.33,569.30 C863.60,569.01 861.87,569.07 860.50,569.41 L 858.00 570.04 L 858.00 587.85 C858.00,597.65 858.29,605.96 858.64,606.31 ZM 752.63 606.21 C752.94,606.71 754.57,606.97 756.26,606.81 C758.77,606.56 759.55,605.86 760.51,603.00 L 761.68 599.50 L 775.24 599.50 L 776.37 603.00 C777.27,605.78 778.09,606.57 780.37,606.83 C781.95,607.01 783.63,606.77 784.09,606.31 C784.56,605.84 783.23,600.52 781.13,594.48 C779.03,588.44 776.30,580.44 775.06,576.70 L 772.80 569.89 L 768.67 570.20 L 764.53 570.50 L 758.30 587.90 C754.88,597.48 752.32,605.71 752.63,606.21 ZM 719.75 604.93 C726.31,608.40 732.80,607.22 735.45,602.09 C736.65,599.78 737.00,595.68 737.00,584.05 L 737.00 569.00 L 729.00 569.00 L 729.00 583.38 C729.00,599.84 728.42,601.30 723.02,598.51 C720.02,596.96 719.83,596.99 717.98,599.20 C715.36,602.34 715.46,602.67 719.75,604.93 ZM 643.47 606.14 C643.73,606.39 645.53,606.42 647.47,606.19 L 651.00 605.78 L 651.00 569.00 L 643.00 569.00 L 643.00 587.33 C643.00,597.42 643.21,605.88 643.47,606.14 ZM 831.47 605.78 C831.79,606.63 833.19,607.01 835.24,606.81 L 838.50 606.50 L 838.50 569.50 L 831.50 569.50 L 831.23 586.96 C831.07,596.57 831.18,605.04 831.47,605.78 ZM 801.54 605.04 C804.83,608.68 809.00,606.89 809.00,601.84 C809.00,596.57 801.66,595.53 800.38,600.61 C799.97,602.26 800.35,603.73 801.54,605.04 ZM 772.68 591.25 C772.92,591.66 771.29,592.00 769.06,592.00 C764.34,592.00 764.16,591.28 766.95,583.50 L 768.74 578.50 L 770.49 584.50 C771.46,587.80 772.44,590.84 772.68,591.25 Z" fill="rgb(0,0,0)"/>
<path d="M 474.00 474.37 L 474.00 473.00 L 383.00 473.00 L 382.98 428.25 C382.98,403.64 382.60,382.92 382.15,382.20 C380.64,379.82 363.38,383.11 351.06,387.53 C363.69,382.22 377.12,379.80 389.66,380.98 C403.59,382.29 411.89,384.45 422.65,389.58 C448.88,402.09 467.64,427.04 472.93,456.43 C473.81,461.33 474.15,467.86 474.00,474.37 ZM 307.90 423.74 C304.57,429.54 302.10,434.41 300.25,439.13 C302.23,433.73 304.77,428.63 307.90,423.74 ZM 331.24 398.83 C326.15,402.77 321.16,407.34 316.93,411.92 C317.56,411.21 318.21,410.50 318.87,409.80 C322.65,405.78 326.81,402.11 331.24,398.83 ZM 468.09 504.47 C470.05,499.30 471.65,494.05 472.68,489.26 C472.45,490.62 472.19,491.90 471.90,493.06 C471.09,496.35 469.73,500.35 468.09,504.47 Z" fill="rgb(4,172,117)"/>
<path d="M 384.64 591.31 C384.29,590.95 384.00,584.73 384.00,577.48 L 384.00 564.28 L 374.75 563.05 C325.41,556.50 290.62,513.16 294.99,463.72 C295.79,454.71 297.49,446.62 300.25,439.13 C302.10,434.41 304.57,429.54 307.90,423.74 C310.49,419.69 313.49,415.77 316.93,411.92 C321.16,407.34 326.15,402.77 331.24,398.83 C337.41,394.26 344.12,390.46 351.06,387.53 C363.38,383.11 380.64,379.82 382.15,382.20 C382.60,382.92 382.98,403.64 382.98,428.25 L 383.00 473.00 L 474.00 473.00 L 474.00 474.37 C473.88,479.64 473.43,484.89 472.68,489.26 C471.65,494.05 470.05,499.30 468.09,504.47 C465.12,511.95 461.22,519.82 457.97,524.54 C449.48,536.88 428.80,557.02 404.00,577.09 C387.99,590.05 385.33,592.00 384.64,591.31 Z" fill="rgb(3,223,153)"/>
<path d="M 594.67 606.33 C594.30,605.97 594.00,597.42 594.00,587.33 L 594.00 569.00 L 597.75 569.01 C601.46,569.03 601.58,569.16 608.00,579.98 C611.58,586.01 614.84,590.95 615.25,590.97 C615.66,590.99 616.00,586.05 616.00,580.00 L 616.00 569.00 L 620.00 569.00 L 624.00 569.00 L 624.00 587.56 L 624.00 606.11 L 619.81 605.81 C615.69,605.50 615.54,605.36 609.82,596.06 C606.63,590.87 603.56,586.16 603.01,585.61 C602.33,584.93 602.00,588.07 602.00,595.18 C602.00,605.31 601.90,605.79 599.75,606.37 C596.81,607.16 595.48,607.15 594.67,606.33 ZM 643.47 606.14 C643.21,605.88 643.00,597.42 643.00,587.33 L 643.00 569.00 L 647.00 569.00 L 651.00 569.00 L 651.00 587.39 L 651.00 605.78 L 647.47 606.19 C645.53,606.42 643.73,606.39 643.47,606.14 ZM 719.75 604.93 C715.46,602.67 715.36,602.34 717.98,599.20 C719.83,596.99 720.02,596.96 723.02,598.51 C728.42,601.30 729.00,599.84 729.00,583.38 L 729.00 569.00 L 733.00 569.00 L 737.00 569.00 L 737.00 584.05 C737.00,595.68 736.65,599.78 735.45,602.09 C732.80,607.22 726.31,608.40 719.75,604.93 ZM 752.63 606.21 C752.32,605.71 754.88,597.48 758.30,587.90 L 764.53 570.50 L 768.67 570.20 L 772.80 569.89 L 775.06 576.70 C776.30,580.44 779.03,588.44 781.13,594.48 C783.23,600.52 784.56,605.84 784.09,606.31 C783.63,606.77 781.95,607.01 780.37,606.83 C778.09,606.57 777.27,605.78 776.37,603.00 L 775.24 599.50 L 768.46 599.50 L 761.68 599.50 L 760.51 603.00 C759.55,605.86 758.77,606.56 756.26,606.81 C754.57,606.97 752.94,606.71 752.63,606.21 ZM 772.68 591.25 C772.44,590.84 771.46,587.80 770.49,584.50 L 768.74 578.50 L 766.95 583.50 C764.16,591.28 764.34,592.00 769.06,592.00 C771.29,592.00 772.92,591.66 772.68,591.25 ZM 801.54 605.04 C800.35,603.73 799.97,602.26 800.38,600.61 C801.66,595.53 809.00,596.57 809.00,601.84 C809.00,606.89 804.83,608.68 801.54,605.04 ZM 831.47 605.78 C831.18,605.04 831.07,596.57 831.23,586.96 L 831.50 569.50 L 835.00 569.50 L 838.50 569.50 L 838.50 588.00 L 838.50 606.50 L 835.24 606.81 C833.19,607.01 831.79,606.63 831.47,605.78 ZM 858.64 606.31 C858.29,605.96 858.00,597.65 858.00,587.85 L 858.00 570.04 L 860.50 569.41 C861.87,569.07 863.60,569.01 864.33,569.30 C865.07,569.58 868.51,574.58 871.99,580.40 C875.47,586.23 878.74,591.00 879.27,591.00 C879.83,591.00 880.07,586.64 879.86,580.25 L 879.50 569.50 L 883.25 569.19 L 887.00 568.88 L 887.00 587.94 L 887.00 607.00 L 884.25 606.98 C882.74,606.98 881.03,606.64 880.45,606.23 C879.87,605.83 876.72,601.11 873.45,595.76 C870.18,590.40 867.18,586.01 866.78,586.01 C866.39,586.00 865.94,590.56 865.78,596.14 L 865.50 606.28 L 862.39 606.61 C860.68,606.80 859.00,606.66 858.64,606.31 ZM 671.00 587.50 L 671.00 569.00 L 674.43 569.00 C677.73,569.00 678.14,569.44 684.59,580.00 C688.29,586.05 691.62,591.00 692.01,591.00 C692.39,591.00 692.66,586.16 692.60,580.25 L 692.50 569.50 L 696.11 569.20 C699.59,568.91 699.74,569.04 700.35,572.70 C700.70,574.79 700.98,583.14 700.99,591.25 L 701.00 606.00 L 696.69 606.00 L 692.38 606.00 L 686.14 595.50 C682.71,589.72 679.58,585.00 679.20,585.00 C678.81,585.00 678.64,589.72 678.81,595.50 L 679.13 606.00 L 675.06 606.00 L 671.00 606.00 L 671.00 587.50 ZM 122.67 528.33 C122.30,527.97 122.00,488.59 122.00,440.83 L 122.00 354.00 L 140.27 354.00 L 158.53 354.00 L 176.52 380.03 C186.41,394.34 200.57,414.79 208.00,425.48 L 221.50 444.91 L 221.76 399.45 L 222.02 354.00 L 245.02 354.00 L 268.01 354.00 L 267.76 441.25 L 267.50 528.50 L 248.50 528.75 C238.05,528.88 229.04,528.66 228.47,528.25 C227.56,527.58 220.35,517.53 195.64,482.50 C191.76,477.00 185.41,468.00 181.52,462.50 C177.64,457.00 172.89,450.15 170.98,447.28 C169.07,444.40 167.19,442.04 166.82,442.03 C166.45,442.01 166.16,443.24 166.20,444.75 C166.23,446.26 166.20,465.84 166.13,488.25 L 166.00 529.00 L 144.67 529.00 C132.93,529.00 123.03,528.70 122.67,528.33 ZM 793.39 527.07 C775.93,524.28 763.01,516.27 756.78,504.38 C753.37,497.86 751.00,489.04 751.00,482.82 L 751.00 480.00 L 769.81 480.00 L 788.62 480.00 L 790.35 483.93 C793.65,491.42 807.29,495.41 816.45,491.58 C820.49,489.90 822.23,487.04 821.81,482.80 C821.28,477.53 817.89,475.95 804.90,474.91 C790.79,473.77 783.61,472.01 774.09,467.36 C765.14,462.98 758.76,456.85 755.17,449.20 C752.76,444.05 752.50,442.38 752.50,431.95 C752.50,420.65 752.58,420.24 756.20,412.92 C764.11,396.90 780.67,388.86 806.00,388.73 C823.63,388.64 835.25,392.48 845.00,401.60 C852.35,408.47 858.00,421.06 858.00,430.55 L 858.00 433.00 L 840.52 433.00 L 823.04 433.00 L 821.06 429.13 C818.66,424.41 813.37,421.97 805.73,422.06 C795.46,422.17 789.83,426.22 791.38,432.39 C792.36,436.29 797.45,438.10 810.11,439.04 C828.31,440.40 845.57,447.61 852.96,456.95 C859.27,464.91 860.48,469.19 860.48,483.50 C860.48,496.15 860.39,496.66 857.31,502.58 C851.31,514.10 841.60,521.39 827.46,525.01 C818.78,527.23 801.08,528.30 793.39,527.07 ZM 554.50 526.42 C540.08,522.93 536.14,521.15 529.89,515.30 C527.09,512.68 523.72,508.40 522.39,505.79 C517.64,496.42 517.03,490.89 517.01,457.29 L 517.00 426.08 L 508.25 425.79 L 499.50 425.50 L 499.23 408.25 L 498.95 391.00 L 507.98 391.00 L 517.00 391.00 L 517.00 377.15 L 517.00 363.30 L 531.25 362.61 C539.09,362.23 547.86,361.65 550.75,361.32 L 556.00 360.72 L 556.00 375.86 L 556.00 391.00 L 570.50 391.00 L 585.00 391.00 L 585.00 408.50 L 585.00 426.00 L 570.43 426.00 L 555.86 426.00 L 556.18 454.25 C556.46,478.98 556.72,482.90 558.27,485.73 C560.98,490.69 565.10,492.33 576.10,492.80 L 585.71 493.22 L 586.35 503.77 C586.71,509.57 587.00,516.66 587.00,519.54 C587.00,524.42 586.82,524.81 584.25,525.40 C580.64,526.24 557.07,527.04 554.50,526.42 ZM 649.39 525.17 C616.30,516.74 595.22,487.95 597.31,454.02 C599.32,421.33 620.70,396.39 651.84,390.41 C684.28,384.18 715.65,398.42 729.24,425.55 C734.93,436.91 736.48,443.65 736.49,457.00 C736.50,463.88 736.18,470.29 735.78,471.25 C735.11,472.88 731.84,473.00 687.03,473.00 C660.61,473.00 639.00,473.35 639.00,473.78 C639.00,474.86 641.81,478.95 644.90,482.37 C646.33,483.96 650.64,486.77 654.47,488.62 C660.51,491.55 662.45,492.00 668.97,491.99 C677.21,491.98 683.70,489.68 689.64,484.66 L 692.79 482.00 L 712.96 482.00 L 733.13 482.00 L 732.46 484.25 C729.06,495.64 714.27,512.33 702.17,518.42 C689.72,524.68 683.97,526.12 669.50,526.57 C659.22,526.89 655.01,526.60 649.39,525.17 ZM 694.00 441.96 C694.00,440.05 690.22,433.52 687.85,431.34 C682.25,426.20 677.07,424.50 667.00,424.51 C656.43,424.52 653.82,425.45 646.88,431.73 C643.04,435.19 640.00,439.72 640.00,441.95 C640.00,442.66 648.82,443.00 667.00,443.00 C685.02,443.00 694.00,442.65 694.00,441.96 Z" fill="rgb(238,251,245)"/>
</g>
</svg>